<svg width="212" height="512" viewBox="0 0 212 512" fill="none" xmlns="http://www.w3.org/2000/svg">
<path d="M211.075 222.041V209.912C211.075 200.021 203.056 192.002 193.165 192.002H181.622C199.429 179.172 211.074 158.163 211.074 134.446V61.853C211.074 51.962 203.055 43.943 193.164 43.943C183.273 43.943 175.254 51.962 175.254 61.853V104.838H148.52C150.565 96.869 151.645 88.612 151.645 80.221C151.645 56.74 143.251 33.973 128.009 16.11L119.626 6.286C116.221 2.297 111.242 0 106.001 0C100.759 0 95.779 2.297 92.376 6.284L83.993 16.11C68.751 33.971 60.358 56.74 60.358 80.221C60.358 88.613 61.437 96.869 63.483 104.838H36.748V61.853C36.748 51.962 28.729 43.943 18.838 43.943C8.94698 43.943 0.927979 51.962 0.927979 61.853V134.446C0.927979 158.162 12.572 179.172 30.381 192.002H18.838C8.94698 192.002 0.927979 200.021 0.927979 209.912V222.041C0.927979 246.304 13.254 267.732 31.954 280.36H18.839C8.94799 280.36 0.928986 288.379 0.928986 298.27V309.636C0.928986 332.771 11.9 353.354 28.839 366.33H18.839C8.94799 366.33 0.928986 374.349 0.928986 384.24V396.241C0.928986 435.053 32.35 466.628 70.973 466.628H88.093V494.091C88.093 503.982 96.112 512.001 106.003 512.001C115.894 512.001 123.913 503.982 123.913 494.091V466.628H141.034C179.656 466.628 211.077 435.053 211.077 396.241V384.24C211.077 374.349 203.058 366.33 193.167 366.33H183.167C200.107 353.355 211.077 332.772 211.077 309.636V298.27C211.077 288.379 203.058 280.36 193.167 280.36H180.052C198.748 267.731 211.075 246.304 211.075 222.041ZM66.57 140.659C73.639 140.659 80.465 142.844 86.187 146.796C86.365 146.991 86.53 147.194 86.709 147.386L88.088 148.874V169.316H70.968C54.179 169.316 40.186 156.93 37.3 140.659H66.57ZM88.089 430.807H70.969C54.091 430.807 40.029 418.406 37.246 402.15H66.571C74.441 402.15 82.011 404.855 88.089 409.699V430.807V430.807ZM88.089 344.837H70.969C54.272 344.837 40.329 332.474 37.339 316.18H66.571C74.441 316.18 82.011 318.884 88.089 323.729V344.837ZM88.089 256.479H70.969C54.057 256.479 39.97 244.068 37.228 227.822H66.571C74.441 227.822 82.011 230.526 88.089 235.371V256.479ZM105.999 114.001C99.61 103.975 96.177 92.308 96.177 80.222C96.177 68.216 99.621 56.501 105.999 46.46C112.377 56.502 115.821 68.216 115.821 80.222C115.822 92.307 112.387 103.973 105.999 114.001ZM123.91 148.875L125.29 147.386C125.469 147.193 125.635 146.991 125.812 146.796C131.534 142.843 138.36 140.659 145.429 140.659H174.698C171.812 156.93 157.819 169.316 141.031 169.316H123.91V148.875ZM123.91 323.731C129.988 318.887 137.56 316.181 145.429 316.181H174.66C171.67 332.475 157.728 344.838 141.031 344.838H123.91V323.731ZM141.031 430.807H123.91V409.7C129.988 404.856 137.56 402.15 145.429 402.15H174.753C171.969 418.406 157.907 430.807 141.031 430.807ZM141.031 256.479H123.91V235.372C129.988 230.528 137.56 227.822 145.429 227.822H174.771C172.029 244.069 157.943 256.479 141.031 256.479Z" fill="white"/>
</svg>
